<svg xmlns="http://www.w3.org/2000/svg" width="155" height="30">
      <defs>
        <linearGradient id="gradient-261061113" x1="0" x2="0" y1="1" y2="0">
          <stop offset="0%" stop-color="var(--color-calendar-graph-day-L1-bg)"/>
          <stop offset="10%" stop-color="var(--color-calendar-graph-day-L2-bg)"/>
          <stop offset="25%" stop-color="var(--color-calendar-graph-day-L3-bg)"/>
          <stop offset="50%" stop-color="var(--color-calendar-graph-day-L4-bg)"/>
        </linearGradient>
        <mask id="sparkline-261061113" x="0" y="0" width="155" height="28">
          <polyline transform="translate(0, 28) scale(1,-1)" points="0,1 3,4 6,1 9,1 12,1 15,2 18,1 21,5 24,3 27,1 30,1 33,2 36,1 39,3 42,1 45,1 48,1 51,14 54,1 57,1 60,1 63,1 66,3 69,6 72,1 75,1 78,1 81,1 84,1 87,5 90,1 93,1 96,1 99,1 102,1 105,2 108,1 111,1 114,1 117,1 120,1 123,2 126,3 129,1 132,1 135,4 138,1 141,1 144,1 147,1 150,1 153,1 " fill="transparent" stroke="#8cc665" stroke-width="2">
        </polyline></mask>
      </defs>

      <g transform="translate(0, -6)">
        <rect x="0" y="-2" width="155" height="30" style="stroke: none; fill: url(#gradient-261061113); mask: url(#sparkline-261061113)"/>
      </g>
    </svg>