<svg xmlns="http://www.w3.org/2000/svg" width="155" height="30">
      <defs>
        <linearGradient id="gradient-603729182" x1="0" x2="0" y1="1" y2="0">
          <stop offset="0%" stop-color="var(--color-calendar-graph-day-L1-bg)"/>
          <stop offset="10%" stop-color="var(--color-calendar-graph-day-L2-bg)"/>
          <stop offset="25%" stop-color="var(--color-calendar-graph-day-L3-bg)"/>
          <stop offset="50%" stop-color="var(--color-calendar-graph-day-L4-bg)"/>
        </linearGradient>
        <mask id="sparkline-603729182" x="0" y="0" width="155" height="28">
          <polyline transform="translate(0, 28) scale(1,-1)" points="0,1.0 3,1.0 6,1.0 9,1.0 12,1.0 15,1.0 18,1.0 21,1.0 24,1.0 27,1.0 30,1.0 33,1.0 36,5.9 39,15.7 42,29.0 45,5.9 48,8.0 51,1.7 54,3.1 57,1.7 60,1.7 63,12.9 66,5.9 69,5.2 72,4.5 75,4.5 78,4.5 81,1.0 84,5.2 87,11.5 90,1.7 93,1.0 96,3.8 99,3.1 102,3.1 105,1.0 108,2.4 111,1.0 114,1.0 117,2.4 120,1.0 123,1.0 126,1.0 129,1.0 132,1.0 135,1.0 138,1.0 141,1.0 144,1.0 147,1.0 150,1.0 153,1.0 " fill="transparent" stroke="#8cc665" stroke-width="2">
        </polyline></mask>
      </defs>

      <g transform="translate(0, 2.0)">
        <rect x="0" y="-2" width="155" height="30" style="stroke: none; fill: url(#gradient-603729182); mask: url(#sparkline-603729182)"/>
      </g>
    </svg>